<svg width="96" height="96" viewBox="0 0 96 96" fill="none" xmlns="http://www.w3.org/2000/svg">
<rect width="96" height="96" rx="48" fill="#FFB800" fill-opacity="0.3"/>
<path d="M30.016 38.456C30.016 36.12 30.688 34.296 32.032 32.984C33.408 31.64 35.168 30.968 37.312 30.968C39.456 30.968 41.2 31.64 42.544 32.984C43.92 34.296 44.608 36.12 44.608 38.456C44.608 40.792 43.92 42.632 42.544 43.976C41.2 45.32 39.456 45.992 37.312 45.992C35.168 45.992 33.408 45.32 32.032 43.976C30.688 42.632 30.016 40.792 30.016 38.456ZM59.296 31.592L40.144 65H34.768L53.92 31.592H59.296ZM37.312 34.28C35.296 34.28 34.288 35.672 34.288 38.456C34.288 41.272 35.296 42.68 37.312 42.68C38.272 42.68 39.008 42.344 39.52 41.672C40.064 40.968 40.336 39.896 40.336 38.456C40.336 35.672 39.328 34.28 37.312 34.28ZM49.552 58.088C49.552 55.752 50.224 53.928 51.568 52.616C52.944 51.272 54.704 50.6 56.848 50.6C58.96 50.6 60.688 51.272 62.032 52.616C63.408 53.928 64.096 55.752 64.096 58.088C64.096 60.424 63.408 62.264 62.032 63.608C60.688 64.952 58.96 65.624 56.848 65.624C54.704 65.624 52.944 64.952 51.568 63.608C50.224 62.264 49.552 60.424 49.552 58.088ZM56.8 53.912C54.784 53.912 53.776 55.304 53.776 58.088C53.776 60.872 54.784 62.264 56.8 62.264C58.816 62.264 59.824 60.872 59.824 58.088C59.824 55.304 58.816 53.912 56.8 53.912Z" fill="#FFB800"/>
</svg>
