<svg width="96" height="96" viewBox="0 0 96 96" fill="none" xmlns="http://www.w3.org/2000/svg">
<rect width="96" height="96" rx="48" fill="#03DAC6" fill-opacity="0.3"/>
<path d="M42.678 23C42.2517 23 41.8429 23.1646 41.5415 23.4576C41.2401 23.7507 41.0708 24.1481 41.0708 24.5625C41.0708 24.9769 41.2401 25.3743 41.5415 25.6674C41.8429 25.9604 42.2517 26.125 42.678 26.125H44.2852V29.4688C38.655 30.2599 33.5418 33.0946 29.9745 37.4026C26.4072 41.7106 24.6505 47.1722 25.0578 52.6884C25.4651 58.2047 28.0063 63.3663 32.17 67.1348C36.3337 70.9032 41.8109 72.9988 47.4997 73C51.8132 72.9998 56.0357 71.7943 59.6644 69.5271C63.2931 67.2598 66.1749 64.0264 67.9668 60.2119C69.7586 56.3973 70.3848 52.1625 69.7709 48.0117C69.157 43.861 67.3289 39.9692 64.5041 36.8L64.5459 36.7625L65.6838 35.6563L66.8185 36.7625C66.9668 36.9117 67.1441 37.0308 67.3402 37.1127C67.5363 37.1945 67.7472 37.2377 67.9606 37.2395C68.174 37.2413 68.3857 37.2017 68.5832 37.1232C68.7807 37.0446 68.9602 36.9286 69.1111 36.7819C69.262 36.6352 69.3813 36.4607 69.4621 36.2687C69.543 36.0767 69.5836 35.8709 69.5818 35.6634C69.5799 35.456 69.5356 35.2509 69.4513 35.0603C69.3671 34.8697 69.2447 34.6973 69.0912 34.5531L64.5459 30.1313C64.3977 29.982 64.2203 29.863 64.0242 29.7811C63.8281 29.6992 63.6172 29.6561 63.4038 29.6543C63.1904 29.6525 62.9788 29.692 62.7813 29.7706C62.5837 29.8492 62.4043 29.9652 62.2534 30.1119C62.1025 30.2586 61.9831 30.433 61.9023 30.6251C61.8215 30.8171 61.7808 31.0228 61.7827 31.2303C61.7845 31.4378 61.8289 31.6428 61.9131 31.8334C61.9974 32.0241 62.1198 32.1965 62.2733 32.3406L63.4112 33.4469L62.2733 34.5531L62.2347 34.5906C58.9809 31.8426 54.9808 30.0653 50.7141 29.4719V26.125H52.3214C52.7476 26.125 53.1564 25.9604 53.4578 25.6674C53.7593 25.3743 53.9286 24.9769 53.9286 24.5625C53.9286 24.1481 53.7593 23.7507 53.4578 23.4576C53.1564 23.1646 52.7476 23 52.3214 23H42.678ZM49.1069 40.5V51.125C49.1069 51.5394 48.9376 51.9368 48.6362 52.2299C48.3347 52.5229 47.9259 52.6875 47.4997 52.6875H36.2491C35.8228 52.6875 35.414 52.5229 35.1126 52.2299C34.8112 51.9368 34.6419 51.5394 34.6419 51.125C34.6419 50.7106 34.8112 50.3132 35.1126 50.0201C35.414 49.7271 35.8228 49.5625 36.2491 49.5625H45.8925V40.5C45.8925 40.0856 46.0618 39.6882 46.3632 39.3951C46.6646 39.1021 47.0734 38.9375 47.4997 38.9375C47.9259 38.9375 48.3347 39.1021 48.6362 39.3951C48.9376 39.6882 49.1069 40.0856 49.1069 40.5Z" fill="#03DAC6"/>
</svg>
