<svg width="96" height="96" viewBox="0 0 96 96" fill="none" xmlns="http://www.w3.org/2000/svg">
<rect width="96" height="96" rx="48" fill="#BB86FC" fill-opacity="0.3"/>
<g clip-path="url(#clip0_19_14)">
<path d="M50.7462 26.4377L48.8288 22.5166C48.5119 21.8358 47.5206 21.8111 47.1712 22.5166L45.2537 26.4377L41.0044 27.0529C40.2487 27.1678 39.9237 28.1111 40.4844 28.6772L43.5719 31.7123L42.8406 35.9861C42.7269 36.749 43.5069 37.3397 44.2056 36.9869L48.0163 34.9526L51.8025 36.9541C52.5012 37.3069 53.2894 36.7162 53.1675 35.9533L52.4362 31.6795L55.5238 28.6772C56.0762 28.1194 55.7594 27.176 55.0037 27.0529L50.7544 26.4377H50.7462ZM42.8 42.9998C41.3619 42.9998 40.2 44.1729 40.2 45.6248V61.3748C40.2 62.8268 41.3619 63.9998 42.8 63.9998H53.2C54.6381 63.9998 55.8 62.8268 55.8 61.3748V45.6248C55.8 44.1729 54.6381 42.9998 53.2 42.9998H42.8ZM24.6 48.2498C23.1619 48.2498 22 49.4229 22 50.8748V61.3748C22 62.8268 23.1619 63.9998 24.6 63.9998H35C36.4381 63.9998 37.6 62.8268 37.6 61.3748V50.8748C37.6 49.4229 36.4381 48.2498 35 48.2498H24.6ZM58.4 56.1248V61.3748C58.4 62.8268 59.5619 63.9998 61 63.9998H71.4C72.8381 63.9998 74 62.8268 74 61.3748V56.1248C74 54.6729 72.8381 53.4998 71.4 53.4998H61C59.5619 53.4998 58.4 54.6729 58.4 56.1248Z" fill="#BB86FC"/>
</g>
<defs>
<clipPath id="clip0_19_14">
<rect width="52" height="42" fill="white" transform="translate(22 22)"/>
</clipPath>
</defs>
</svg>
